<svg width="86" height="50" viewBox="0 0 86 50" fill="none" xmlns="http://www.w3.org/2000/svg">
<rect width="85.7143" height="50" fill="#F0106C"/>
<circle cx="23.8094" cy="14.2854" r="7.14286" fill="#FBF4E1"/>
<circle cx="61.9046" cy="14.2854" r="7.14286" fill="#FBF4E1"/>
<circle cx="24" cy="15" r="4" fill="#73002A"/>
<circle cx="61" cy="15" r="4" fill="#73002A"/>
<path d="M36.9844 26.3803C39.0001 24.9995 44.5001 24.9997 47.0001 27.4998" stroke="#750030" stroke-width="1.58731" stroke-linecap="round"/>
<path d="M36.5 24C37 25 37 27 35.5 28" stroke="#750030" stroke-width="1.58731" stroke-linecap="round"/>
<path d="M53.8069 5.61989C54.5279 4.76541 56.2209 4.14588 57.1929 4.38086" stroke="#710025" stroke-width="1.59" stroke-linecap="round"/>
<path d="M31.386 6.94411C30.665 6.08963 28.972 5.4701 28 5.70508" stroke="#710025" stroke-width="1.59" stroke-linecap="round"/>
<path d="M22.386 21.9441C21.665 21.0896 19.972 20.4701 19 20.7051" stroke="#710025" stroke-width="1.59" stroke-linecap="round"/>
<path d="M64.9998 21.998C65.5452 21.022 67.0894 20.0918 68.0884 20.1377" stroke="#710025" stroke-width="1.59" stroke-linecap="round"/>
</svg>
